<?xml version="1.0" encoding="utf-8"?>
<!-- Generator: Adobe Illustrator 23.0.1, SVG Export Plug-In . SVG Version: 6.00 Build 0)  -->
<svg version="1.1" id="Layer_1" xmlns="http://www.w3.org/2000/svg" xmlns:xlink="http://www.w3.org/1999/xlink" x="0px" y="0px"
	 viewBox="0 0 264 280" style="enable-background:new 0 0 264 280;" xml:space="preserve">
<style type="text/css">
	.st0{fill-rule:evenodd;clip-rule:evenodd;fill:#FEFEFE;}
</style>
<path id="Logo" class="st0" d="M97.7,235.7c12.8,2,63.9,1.9,70.9-5c0.8-4.1-1.2-5.5-2.4-8.4c-11.7-0.1-42.6,3-57.7,4
	C99.7,227.1,97.6,225.9,97.7,235.7 M118.3,204.4c0.7-7.9,0.1-47.3,0.1-58.7c0-10.2-14.6-31.3-17.1-42c-8.8-0.2-17.7-3.2-22.7-7.6
	c-4.3-3.8-10.2-11-11.1-18.8c2.4-0.1,1.1-0.1,2.2,0.7c1.7,1.2,7.1,9.1,14,5.4c5.6-3,18.2-19.4,31.6-17.3c3.5,0.5,6.2,2.3,8.3,4
	c1.5,1.2,5.3,4.9,6.7,5.6c5-1.4,6.3-8.3,15.4-9.2c17.6-1.8,27.5,15.1,32.3,16.8c9.3,3.3,11.5-4.8,16.4-7.2
	c-0.1,4.6-1.3,8.4-3.1,11.8c-1.6,3-4.3,6.4-6.9,8.5c-6.5,5.2-12.3,6.9-22.6,8.1c-3.2,11.1-14.8,34.6-14.7,42.3
	c0.1,14.6-0.7,45.3,0.1,57.5c3.6,0.6,15.5-0.4,18.9-1.5c11.3-3.9,8-22.6,9.8-32.1c1.7-8.8,27.3-46.6,32.6-73.3
	c4.6-23.5-3.9-48.1-17.8-65c-6.1-7.4-15.5-13.7-23.9-18.1C110.9-14.6,43.6,39.3,56.2,97.6c6.5,30.3,31.1,64.5,33.2,72.2
	c2.7,9.7,1,29.9,9.7,32.8C102.6,203.7,114.2,204.5,118.3,204.4z M104.4,103.9c3.2,6.7,16.9,34.5,17,41.3c0.3,12.2-0.8,51.8,0.2,59.2
	l21.7,0c0.6-11.4,0.1-43.8,0.1-57.2c-0.1-12.5,12.5-32.9,14.2-43.6c-13.9-1-24-13.1-26.7-14.6C122,94.9,124.8,99.5,104.4,103.9z
	 M130.1,211.3l-30.1,2.3c-7.3,11.3,2.7,8.5,6.7,8.8c14.9,0.8,51.9,2.2,61.9-4.9c0.5-3.8-0.8-5.4-2-8.3c12.5-3,14.2-15.3,14.9-29.6
	c0.6-13.1,5.8-18.3,12.9-32.1c5.2-10.1,10.3-19.7,14.6-30.4c5.7-14.1,7.1-21,6.5-37.9c-0.7-19-7.6-34.8-18.5-48.7l-11.2-11.3
	c-6.3-6.5-19.8-13.1-29.2-15.9c-13.1-3.8-26.1-4.3-39.8-1.5c-19,3.8-30.5,12.1-43.6,23.4c-1.7,1.5-3.5,3.9-5.2,6.1
	c-17.8,22.2-24.7,48.7-15.5,77.7c2.7,8.5,9.6,23.8,13.6,31.5l16.2,28.8c4.5,10.9,0.8,26.6,9.3,35.8
	C98.9,213.1,125.2,209.4,130.1,211.3z M97.9,249.8c2.7,0.8,67.2,3.6,70.7-5.3c0.6-3.3-1.2-5.8-2.8-7.9c-11.2-0.4-26,2-37.6,2.7
	c-2.6,0.2-27.2,1.6-28.4,2.5C97.8,243.3,97.5,247,97.9,249.8z M165.7,259.6c-0.1-8.6-4-7.7-11.3-6.8c-7.6,1-26.6,1.9-35.4,2.5
	c-4.3,0.3-14.3,0-16.2,2.7c-1.4,2-1.8,6.1,1.4,6.5l47-0.7C159,263.6,160.6,262.2,165.7,259.6z M113.8,268.9
	c2.9,11,18.8,12.4,28.1,10.2c3-0.7,3.4-1,5.3-2.9c2.7-2.7,6.3-5.5,7.8-8.2C148,263.6,121.7,266.8,113.8,268.9z"/>
</svg>
