<?xml version="1.0" encoding="utf-8"?>
<!-- Generator: Adobe Illustrator 23.0.1, SVG Export Plug-In . SVG Version: 6.00 Build 0)  -->
<svg version="1.1" id="Capa_1" xmlns="http://www.w3.org/2000/svg" xmlns:xlink="http://www.w3.org/1999/xlink" x="0px" y="0px"
	 viewBox="0 0 529.9 529.9" style="enable-background:new 0 0 529.9 529.9;" xml:space="preserve">
<style type="text/css">
	.st0{fill:none;stroke:#5C9FD6;stroke-width:2;stroke-miterlimit:10;}
	.st1{fill:none;stroke:#EAAA75;stroke-width:2;stroke-miterlimit:10;}
	.st2{fill:none;stroke:#F79172;stroke-width:2;stroke-miterlimit:10;}
	.st3{fill:none;stroke:#92CCB3;stroke-width:2;stroke-miterlimit:10;}
	.st4{fill:none;stroke:#FFC85A;stroke-width:2;stroke-miterlimit:10;}
	.st5{fill:none;stroke:#8DC1D8;stroke-width:2;stroke-miterlimit:10;}
</style>
<rect x="176.7" y="157" class="st0" width="15" height="15"/>
<rect x="177" y="408.8" class="st0" width="15" height="15"/>
<rect x="375.6" y="92.2" class="st0" width="9.8" height="9.8"/>
<rect x="445.6" y="277.1" class="st0" width="9.8" height="9.8"/>
<polygon class="st1" points="17.1,63.5 23.3,57.9 30.3,63.5 27.6,71 19.5,71 "/>
<polygon class="st1" points="409.2,487.1 415.4,481.5 422.4,487.1 419.8,494.7 411.7,494.7 "/>
<polygon class="st1" points="463.9,56 473.4,47.3 484.1,56 480.1,67.6 467.7,67.6 "/>
<polygon class="st2" points="49.5,233.4 49.5,251.3 65.5,242.3 "/>
<polygon class="st2" points="82.7,410.8 82.7,423.7 94.3,417.2 "/>
<circle class="st3" cx="313" cy="200.2" r="7.1"/>
<circle class="st3" cx="150.4" cy="488.1" r="7.1"/>
<circle class="st3" cx="101.4" cy="109.1" r="7.1"/>
<polyline class="st4" points="240.8,158.5 240.8,148 248.7,148 248.7,137.2 259.2,137.2 "/>
<polyline class="st4" points="367,399.5 367,389.4 377.4,389.4 377.4,379 391.4,379 "/>
<polyline class="st4" points="10.4,383.8 10.4,375.4 16.7,375.4 16.7,366.8 25,366.8 "/>
<line class="st5" x1="170.6" y1="280" x2="183.8" y2="293.4"/>
<line class="st5" x1="429.9" y1="177.6" x2="443.1" y2="190.9"/>
<line class="st5" x1="302.6" y1="1.6" x2="315.8" y2="14.9"/>
<path class="st5" d="M304.9,296.4c0,0,0.9-8.7,10-9.6"/>
<path class="st5" d="M502.4,430.5c0,0,1.6-16.9,18.8-18.8"/>
<path class="st5" d="M283.2,471.7c0,0,1.6-16.9,18.8-18.8"/>
<path class="st5" d="M138.6,68c0,0,0.9-9.5,10.2-10.5"/>
</svg>
